<?xml version="1.0" standalone="no"?><!DOCTYPE svg PUBLIC "-//W3C//DTD SVG 1.1//EN" "http://www.w3.org/Graphics/SVG/1.1/DTD/svg11.dtd"><svg t="1622188568021" class="icon" viewBox="0 0 1024 1024" version="1.1" xmlns="http://www.w3.org/2000/svg" p-id="1141" xmlns:xlink="http://www.w3.org/1999/xlink" width="200" height="200"><defs><style type="text/css"></style></defs><path d="M907.22445432 141.78896375a31.89444523 31.89444523 0 0 0-1.9769288-8.34703171c-0.96649827-2.10872328-1.14222502-2.3283823-1.27402027-2.54804054a27.94058839 27.94058839 0 0 0-1.31795253-2.19658705l-1.36188404-1.9769288a26.93015785 26.93015785 0 0 0-2.06479179-2.19658706c-1.66940603-1.53761078-1.66940603-1.58154305-1.75726979-1.71333752l-2.02085954-1.31795254a33.30026076 33.30026076 0 0 0-7.02907916-3.51453959 31.45512797 31.45512797 0 0 0-6.1504439-1.27402027 28.64349614 28.64349614 0 0 0-12.91593254 1.97692804C868.21306694 118.98838948 622.15137762 247.40087264 131.12629173 504.0501122a27.72092937 27.72092937 0 0 0 0.35145427 49.07175586l197.69284046 99.85685076a27.41340737 27.41340737 0 1 0 24.73357158-48.98389286L203.78939414 528.34436576l566.9830681-296.27567174-349.47701117 419.06489202a27.45733887 27.45733887 0 0 0-6.3701029 17.57269639v209.55441175a27.36947587 27.36947587 0 0 0 41.60336019 25.21682033c8.78634819-5.27180938 13.83849856-15.02465584 13.17952228-25.21682033v-199.62583778l368.67518287-442.12905602-83.90962815 567.72990813-197.73677274-98.27530849a27.41340737 27.41340737 0 1 0-24.4260488 49.15962038l231.60814677 114.96936959a27.41340737 27.41340737 0 0 0 39.36284087-20.51612346L907.04872758 147.98333913a37.86916238 37.86916238 0 0 0 0.17572674-6.15044389z" fill="#5063c2" p-id="1142"></path></svg>