<?xml version="1.0" standalone="no"?><!DOCTYPE svg PUBLIC "-//W3C//DTD SVG 1.1//EN" "http://www.w3.org/Graphics/SVG/1.1/DTD/svg11.dtd"><svg t="1622188527200" class="icon" viewBox="0 0 1024 1024" version="1.1" xmlns="http://www.w3.org/2000/svg" p-id="999" xmlns:xlink="http://www.w3.org/1999/xlink" width="200" height="200"><defs><style type="text/css"></style></defs><path d="M857.6 243.2h-140.8v-64c0-44.8-38.4-89.6-83.2-89.6H396.8c-44.8 0-83.2 38.4-83.2 89.6v64H172.8c-19.2 0-25.6 12.8-25.6 25.6v537.6c0 70.4 51.2 128 121.6 128h492.8c64 0 121.6-57.6 121.6-128V268.8c0-12.8-12.8-25.6-25.6-25.6z m-499.2-64c0-19.2 19.2-38.4 38.4-38.4h236.8c19.2 0 32 19.2 32 38.4v64H358.4v-64z m-51.2 115.2v83.2c-6.4 6.4-12.8 12.8-12.8 25.6 0 19.2 19.2 38.4 38.4 38.4s38.4-19.2 38.4-38.4c0-12.8-6.4-25.6-19.2-32V294.4h307.2v76.8c-6.4 6.4-12.8 19.2-12.8 32 0 19.2 19.2 38.4 38.4 38.4s38.4-19.2 38.4-38.4c0-12.8-6.4-19.2-12.8-25.6V294.4H832v460.8H198.4V294.4h108.8z m454.4 588.8H262.4c-38.4 0-70.4-32-70.4-76.8v-12.8h640v12.8c0 38.4-32 76.8-70.4 76.8z" fill="#5063c2" p-id="1000"></path></svg>