<?xml version="1.0" standalone="no"?><!DOCTYPE svg PUBLIC "-//W3C//DTD SVG 1.1//EN" "http://www.w3.org/Graphics/SVG/1.1/DTD/svg11.dtd"><svg t="1622188653940" class="icon" viewBox="0 0 1024 1024" version="1.1" xmlns="http://www.w3.org/2000/svg" p-id="1907" xmlns:xlink="http://www.w3.org/1999/xlink" width="200" height="200"><defs><style type="text/css"></style></defs><path d="M536 402.4m-218.4 0a218.4 218.4 0 1 0 436.8 0 218.4 218.4 0 1 0-436.8 0Z" fill="#8ec1df" p-id="1908"></path><path d="M512 106.4C288 106.4 106.4 288 106.4 512S288 918.4 512 918.4s406.4-181.6 406.4-406.4S736.8 106.4 512 106.4z m252.8 658.4c-32.8 32.8-71.2 58.4-113.6 76.8-44 18.4-90.4 28-139.2 28-48 0-95.2-9.6-139.2-28-42.4-17.6-80.8-44-113.6-76.8s-58.4-71.2-76.8-113.6c-18.4-44-28-90.4-28-139.2 0-48 9.6-95.2 28-139.2 17.6-42.4 44-80.8 76.8-113.6s71.2-58.4 113.6-76.8c44-18.4 90.4-28 139.2-28 48 0 95.2 9.6 139.2 28 42.4 17.6 80.8 44 113.6 76.8s58.4 71.2 76.8 113.6c18.4 44 28 90.4 28 139.2 0 48-9.6 95.2-28 139.2-18.4 42.4-44 80.8-76.8 113.6z" fill="#5063c2" p-id="1909"></path><path d="M488.8 665.6h53.6v59.2h-53.6zM611.2 357.6c-24-21.6-55.2-33.6-88-32.8-16.8 0-33.6 2.4-49.6 8s-30.4 13.6-43.2 25.6c-12.8 11.2-20.8 24.8-26.4 39.2s-7.2 36-8 64h48c0-61.6 25.6-92 77.6-92 23.2 0 40.8 6.4 52.8 19.2 12 12.8 18.4 28 18.4 44.8 0 16.8-2.4 29.6-8 38.4-5.6 8.8-16.8 22.4-35.2 40.8-18.4 19.2-31.2 32.8-37.6 43.2-7.2 9.6-12 20.8-16 33.6-3.2 12.8-5.6 16.8-5.6 24h51.2c0-5.6 0.8-5.6 4-16.8 3.2-11.2 8-20.8 14.4-28.8s19.2-21.6 39.2-40c19.2-19.2 28-34.4 34.4-47.2 5.6-12.8 8-26.4 8-42.4 0.8-32.8-8.8-61.6-30.4-80.8z" fill="#5063c2" p-id="1910"></path></svg>