<?xml version="1.0" standalone="no"?><!DOCTYPE svg PUBLIC "-//W3C//DTD SVG 1.1//EN" "http://www.w3.org/Graphics/SVG/1.1/DTD/svg11.dtd"><svg t="1621907810794" class="icon" viewBox="0 0 1024 1024" version="1.1" xmlns="http://www.w3.org/2000/svg" p-id="1784" xmlns:xlink="http://www.w3.org/1999/xlink" width="200" height="200"><defs><style type="text/css"></style></defs><path d="M512 830.4l402.4-401.9c10.4-10.4 27.4-10.4 37.8 0 10.4 10.4 10.4 27.4 0 37.8L531.1 887c-5.2 5.2-12.2 7.8-19.1 7.8-6.9 0-13.8-2.6-19.1-7.8L71.8 466.4c-10.4-10.4-10.4-27.4 0-37.8 10.4-10.4 27.4-10.4 37.8 0L512 830.4z" fill="#040000" p-id="1785"></path><path d="M512 538.9L914.4 137c10.4-10.4 27.4-10.4 37.8 0 10.4 10.4 10.4 27.4 0 37.8L531.1 595.4c-5.2 5.2-12.2 7.8-19.1 7.8-6.9 0-13.8-2.6-19.1-7.8L71.8 174.8c-10.4-10.4-10.4-27.4 0-37.8 10.4-10.4 27.4-10.4 37.8 0L512 538.9z" fill="#040000" p-id="1786"></path></svg>