<?xml version="1.0" standalone="no"?><!DOCTYPE svg PUBLIC "-//W3C//DTD SVG 1.1//EN" "http://www.w3.org/Graphics/SVG/1.1/DTD/svg11.dtd"><svg t="1622431856991" class="icon" viewBox="0 0 1024 1024" version="1.1" xmlns="http://www.w3.org/2000/svg" p-id="2891" xmlns:xlink="http://www.w3.org/1999/xlink" width="200" height="200"><defs><style type="text/css"></style></defs><path d="M543.21875 322.15625c-14.34375 0-24.46875 3.375-35.4375 14.34375-10.96875 6.75-14.34375 17.71875-14.34375 31.21875 0 10.96875 3.375 21.09375 14.34375 32.0625 10.96875 6.75 21.09375 14.34375 35.4375 14.34375s24.46875-3.375 35.4375-14.34375c10.96875-6.75 14.34375-17.71875 14.34375-32.0625 0-10.96875-3.375-21.09375-14.34375-31.21875-10.125-10.96875-21.09375-14.34375-35.4375-14.34375z m14.34375 344.25c-10.96875 0-17.71875 0-21.09375-3.375s-6.75-10.96875-6.75-17.71875c0-3.375 0-10.96875 3.375-17.71875 0-6.75 3.375-14.34375 3.375-17.71875l21.09375-70.03125c3.375-6.75 3.375-14.34375 3.375-21.09375v-17.71875c0-14.34375-6.75-27.84375-17.71875-35.4375-10.96875-10.96875-24.46875-14.34375-45.5625-14.34375-10.96875 0-21.09375 3.375-35.4375 6.75s-24.46875 6.75-38.8125 14.34375l-6.75 21.09375c3.375 0 6.75-3.375 14.34375-3.375s10.96875-3.375 17.71875-3.375c10.96875 0 17.71875 3.375 21.09375 3.375 3.375 3.375 6.75 10.96875 6.75 17.71875 0 3.375 0 10.96875-3.375 17.71875 0 6.75-3.375 14.34375-3.375 17.71875l-21.09375 70.03125c-3.375 6.75-3.375 14.34375-3.375 21.09375v17.71875c0 14.34375 6.75 24.46875 17.71875 35.4375 10.96875 10.96875 24.46875 14.34375 45.5625 14.34375 14.34375 0 24.46875 0 35.4375-3.375 10.96875-3.375 21.09375-6.75 38.8125-14.34375l6.75-21.09375c-3.375 0-6.75 3.375-14.34375 3.375h-17.71875zM508.625 135.6875c-210.9375 0-379.6875 168.75-379.6875 376.3125s168.75 376.3125 376.3125 376.3125 379.6875-168.75 379.6875-376.3125-168.75-376.3125-376.3125-376.3125z m0 720.5625C318.78125 856.25 163.53125 701.84375 163.53125 512S318.78125 167.75 508.625 167.75 852.875 322.15625 852.875 512 698.46875 856.25 508.625 856.25z" fill="#5063C2" p-id="2892"></path></svg>