<?xml version="1.0" standalone="no"?><!DOCTYPE svg PUBLIC "-//W3C//DTD SVG 1.1//EN" "http://www.w3.org/Graphics/SVG/1.1/DTD/svg11.dtd"><svg t="1622431849631" class="icon" viewBox="0 0 1024 1024" version="1.1" xmlns="http://www.w3.org/2000/svg" p-id="2752" xmlns:xlink="http://www.w3.org/1999/xlink" width="200" height="200"><defs><style type="text/css"></style></defs><path d="M724.28944905 273.95373535c-10.01129151-10.38208008-10.01129151-26.69677734 0.37078858-36.70806884 10.38208008-10.38208008 26.69677734-10.38208008 37.07885742 0l46.34857177 46.34857177c14.08996583 14.08996583 14.08996583 36.33728028 0 50.4272461l-46.34857177 46.34857177c-10.38208008 10.38208008-27.06756592 10.38208008-37.07885742 0-10.38208008-10.38208008-10.38208008-27.06756592 0-37.07885742l7.78656005-7.78656006h-33.74176024c-92.32635498 0-123.84338379 58.21380615-123.8433838 177.23693848 0 14.4607544-11.4944458 25.9552002-25.9552002 25.95520019s-25.9552002-11.4944458-25.95520019-25.9552002c0-147.20306396 53.39355469-229.88891602 176.49536133-229.888916h33.74176026l-8.89892579-8.89892579z" fill="#5063c2" p-id="2753"></path><path d="M533.33333333 882.78857422C329.02882893 882.78857422 162.54475911 716.67529297 162.54475911 512 162.54475911 307.6954956 328.65804036 141.21142578 533.33333333 141.21142578c15.57312012 0 27.80914307 12.23602295 27.80914307 27.80914307S548.90645345 196.82971191 533.33333333 196.82971191c-173.89984131 0-315.17028809 141.27044678-315.17028809 315.17028809s141.27044678 315.17028809 315.17028809 315.17028809 315.17028809-141.27044678 315.17028809-315.17028809c0-15.57312012 12.23602295-27.80914307 27.80914306-27.80914307s27.80914307 12.23602295 27.80914307 27.80914307c0 204.3045044-166.48406982 370.78857422-370.78857422 370.78857422z" fill="#5063c2" p-id="2754"></path></svg>