<?xml version="1.0" standalone="no"?><!DOCTYPE svg PUBLIC "-//W3C//DTD SVG 1.1//EN" "http://www.w3.org/Graphics/SVG/1.1/DTD/svg11.dtd"><svg t="1622425748000" class="icon" viewBox="0 0 1024 1024" version="1.1" xmlns="http://www.w3.org/2000/svg" p-id="1292" xmlns:xlink="http://www.w3.org/1999/xlink" width="200" height="200"><defs><style type="text/css"></style></defs><path d="M761.66430663 160.98681641H262.33569337C183.23413086 160.98681641 116.4921875 225.25683594 116.4921875 306.83032227v410.33935546c0 81.57348633 66.74194336 145.84350586 145.84350585 145.84350586H759.19238281c81.57348633 0 145.84350586-66.74194336 145.84350586-145.84350586V306.83032227c2.47192383-81.57348633-64.27001953-145.84350586-143.37158202-145.84350586Zm86.51733399 440.0024414H586.15771484c-49.43847655 0-88.98925781-39.55078125-88.98925781-88.98925781s39.55078125-88.98925781 88.98925781-88.98925781h264.49584961v177.97851562ZM586.15771484 366.15649414c-81.57348633 0-145.84350586 66.74194336-145.84350586 145.84350586 0 81.57348633 66.74194336 145.84350586 145.84350586 145.84350586h264.49584961v59.32617187c0 49.43847655-39.55078125 88.98925781-88.9892578 88.98925782H262.33569337c-49.43847655 0-88.98925781-39.55078125-88.98925782-88.98925782V306.83032227c0-49.43847655 39.55078125-88.98925781 88.98925782-88.98925782H759.19238281c49.43847655 0 88.98925781 39.55078125 88.98925782 88.98925782v59.32617187H586.15771484Z" fill="#5063c2" p-id="1293"></path><path d="M556.49462891 512c0 17.30346679 12.35961914 29.66308594 29.66308593 29.66308594s29.66308594-12.35961914 29.66308594-29.66308594-12.35961914-29.66308594-29.66308594-29.66308594-29.66308594 12.35961914-29.66308593 29.66308594Z" fill="#5063c2" p-id="1294"></path></svg>