<?xml version="1.0" standalone="no"?><!DOCTYPE svg PUBLIC "-//W3C//DTD SVG 1.1//EN" "http://www.w3.org/Graphics/SVG/1.1/DTD/svg11.dtd"><svg t="1622431693697" class="icon" viewBox="0 0 1024 1024" version="1.1" xmlns="http://www.w3.org/2000/svg" p-id="2614" xmlns:xlink="http://www.w3.org/1999/xlink" width="200" height="200"><defs><style type="text/css"></style></defs><path d="M863.80208333 401.87708333C834.27083333 234.53333333 691.50833333 111.45833333 519.27083333 111.45833333c-172.29375 0-315 127.96875-344.53125 290.3625C145.20833333 426.45833333 125.52083333 470.78333333 125.52083333 515.05208333c0 59.0625 34.48125 127.96875 88.59375 127.96875 49.21875 0 49.21875-54.1125 49.21875-127.96875 0-68.90625 0-123.01875-34.425-127.96875A296.04375 296.04375 0 0 1 519.27083333 155.78333333c142.70625 0 260.83125 98.4375 290.3625 226.40625-34.425 9.84375-34.425 59.0625-34.425 127.9125 0 48.825 0 83.08125 9.5625 107.6625 0.1125 0.225 0.3375 0.39375 0.28125 0.61875-27.9 132.1875-108.28125 187.03125-187.03125 206.775-14.79375-19.6875-44.325-34.48125-78.75-34.48125-49.21875 0-88.59375 24.6375-88.59375 54.1125 0 29.5875 39.375 54.16875 88.59375 54.16875s88.59375-24.58125 88.59375-54.16875c78.75-19.6875 173.925-87.58125 191.925-211.6125 0 0.225 0.3375 0.28125 0.50625 0.45 5.0625 4.5 14.625 4.5 24.13125 4.5 54.1125 0 88.59375-68.9625 88.59375-128.025 0-39.375-19.6875-83.64375-49.21875-108.225z" fill="#5063c2" p-id="2615"></path></svg>